<mxfile host="app.diagrams.net" modified="2024-02-27T22:12:16.462Z" agent="Mozilla/5.0 (Windows NT 10.0; Win64; x64) AppleWebKit/537.36 (KHTML, like Gecko) Chrome/122.0.0.0 Safari/537.36 Edg/122.0.0.0" version="23.1.6" etag="HE6QmH_C3lOgfF5Q7xoy" type="github">
  <diagram name="PÃ¡gina-1" id="uVfIWwsOY82yQzBy9Nh6">
    <mxGraphModel>
      <root>
        <mxCell id="0" />
        <mxCell id="1" parent="0" />
      </root>
    </mxGraphModel>
  </diagram>
</mxfile>
